<svg width="64" height="56" viewBox="0 0 64 56" fill="none" xmlns="http://www.w3.org/2000/svg">
<path d="M44.0735 32.375C44.0735 33.3375 43.2802 34.125 42.3105 34.125H36.1403V40.25C36.1403 41.2125 35.3469 42 34.3773 42H29.0885C28.1189 42 27.3256 41.2125 27.3256 40.25V34.125H21.1553C20.1857 34.125 19.3923 33.3375 19.3923 32.375V27.125C19.3923 26.1625 20.1857 25.375 21.1553 25.375H27.3256V19.25C27.3256 18.2875 28.1189 17.5 29.0885 17.5H34.3773C35.3469 17.5 36.1403 18.2875 36.1403 19.25V25.375H42.3105C43.2802 25.375 44.0735 26.1625 44.0735 27.125V32.375ZM51.1252 15.5203V6.125C51.1252 4.67578 52.3042 3.40156 53.7696 3.40156C55.2351 3.40156 56.4141 4.67578 56.4141 6.125V19.9719L62.5292 25.1234C63.6421 26.0641 63.7853 27.7156 62.8378 28.8203C61.8902 29.925 60.2264 30.0672 59.1135 29.1266L56.4141 26.8516V47.25C56.4141 52.0844 52.4695 56 47.5994 56H15.8665C10.9986 56 7.05178 52.0844 7.05178 47.25V26.8516L4.35559 29.1266C3.24163 30.0672 1.57345 29.925 0.628073 28.8203C-0.316752 27.7156 -0.180014 26.0641 0.933612 25.1234L30.0251 0.623437C31.0057 -0.207813 32.4601 -0.207813 33.4408 0.623437L51.1252 15.5203ZM15.8665 50.75H47.5994C49.5496 50.75 51.1252 49.1859 51.1252 47.25V22.4L31.7329 6.06703L12.3406 22.4V47.25C12.3406 49.1859 13.9162 50.75 15.8665 50.75Z" fill="#1D884A"/>
</svg>
