<svg width="104" height="24" viewBox="0 0 104 24" fill="none" xmlns="http://www.w3.org/2000/svg"><g filter="url(#filter0_d_1_1651)"><g clip-path="url(#clip0_1_1651)"><path d="M19.1111 7.45779C19.2763 7.33473 19.3988 7.16307 19.4615 6.96686C19.5242 6.77065 19.5239 6.55974 19.4607 6.36371C19.3975 6.16767 19.2745 5.99633 19.109 5.87372C18.9435 5.75111 18.7437 5.68337 18.5378 5.68001L14.5378 5.5289C14.5181 5.52754 14.4993 5.52053 14.4835 5.5087C14.4677 5.49687 14.4557 5.48073 14.4489 5.46223L13.0667 1.7289C12.9972 1.53896 12.8711 1.37495 12.7053 1.25908C12.5396 1.1432 12.3422 1.08105 12.14 1.08105C11.9378 1.08105 11.7404 1.1432 11.5747 1.25908C11.4089 1.37495 11.2828 1.53896 11.2133 1.7289L9.83557 5.47557C9.82876 5.49407 9.81674 5.5102 9.80097 5.52203C9.7852 5.53386 9.76634 5.54088 9.74668 5.54223L5.74668 5.69334C5.54072 5.69671 5.34099 5.76444 5.17547 5.88705C5.00996 6.00966 4.88697 6.181 4.82375 6.37704C4.76053 6.57308 4.76024 6.78399 4.82294 6.98019C4.88563 7.1764 5.00816 7.34807 5.17334 7.47112L8.31112 9.93779C8.32683 9.95015 8.33856 9.96684 8.34488 9.9858C8.3512 10.0048 8.35183 10.0251 8.34668 10.0445L7.26668 13.8711C7.21071 14.066 7.21613 14.2734 7.28221 14.465C7.34828 14.6567 7.47179 14.8234 7.63594 14.9424C7.8001 15.0613 7.99692 15.1269 8.19963 15.13C8.40235 15.1332 8.60112 15.0738 8.7689 14.96L12.0845 12.7378C12.1008 12.7265 12.1202 12.7205 12.14 12.7205C12.1599 12.7205 12.1792 12.7265 12.1956 12.7378L15.5111 14.96C15.6766 15.0777 15.8747 15.141 16.0778 15.141C16.2809 15.141 16.4789 15.0777 16.6445 14.96C16.8086 14.8421 16.9323 14.6763 16.9983 14.4853C17.0644 14.2943 17.0696 14.0875 17.0133 13.8933L15.9245 10.0533C15.9187 10.0341 15.919 10.0135 15.9254 9.99439C15.9317 9.9753 15.9438 9.95864 15.96 9.94668L19.1111 7.45779Z" fill="#F2994A"></path></g><g clip-path="url(#clip1_1_1651)"><path d="M39.1111 7.45779C39.2763 7.33473 39.3988 7.16307 39.4615 6.96686C39.5242 6.77065 39.5239 6.55974 39.4607 6.36371C39.3975 6.16767 39.2745 5.99633 39.109 5.87372C38.9435 5.75111 38.7437 5.68337 38.5378 5.68001L34.5378 5.5289C34.5181 5.52754 34.4993 5.52053 34.4835 5.5087C34.4677 5.49687 34.4557 5.48073 34.4489 5.46223L33.0667 1.7289C32.9972 1.53896 32.8711 1.37495 32.7053 1.25908C32.5396 1.1432 32.3422 1.08105 32.14 1.08105C31.9378 1.08105 31.7404 1.1432 31.5747 1.25908C31.4089 1.37495 31.2828 1.53896 31.2133 1.7289L29.8356 5.47557C29.8288 5.49407 29.8167 5.5102 29.801 5.52203C29.7852 5.53386 29.7663 5.54088 29.7467 5.54223L25.7467 5.69334C25.5407 5.69671 25.341 5.76444 25.1755 5.88705C25.01 6.00966 24.887 6.181 24.8237 6.37704C24.7605 6.57308 24.7602 6.78399 24.8229 6.98019C24.8856 7.1764 25.0082 7.34807 25.1733 7.47112L28.3111 9.93779C28.3268 9.95015 28.3386 9.96684 28.3449 9.9858C28.3512 10.0048 28.3518 10.0251 28.3467 10.0445L27.2667 13.8711C27.2107 14.066 27.2161 14.2734 27.2822 14.465C27.3483 14.6567 27.4718 14.8234 27.6359 14.9424C27.8001 15.0613 27.9969 15.1269 28.1996 15.13C28.4024 15.1332 28.6011 15.0738 28.7689 14.96L32.0845 12.7378C32.1008 12.7265 32.1202 12.7205 32.14 12.7205C32.1599 12.7205 32.1792 12.7265 32.1956 12.7378L35.5111 14.96C35.6766 15.0777 35.8747 15.141 36.0778 15.141C36.2809 15.141 36.4789 15.0777 36.6445 14.96C36.8086 14.8421 36.9323 14.6763 36.9983 14.4853C37.0644 14.2943 37.0696 14.0875 37.0133 13.8933L35.9245 10.0533C35.9187 10.0341 35.919 10.0135 35.9254 9.99439C35.9317 9.9753 35.9438 9.95864 35.96 9.94668L39.1111 7.45779Z" fill="#F2994A"></path></g><g clip-path="url(#clip2_1_1651)"><path d="M59.1111 7.45779C59.2763 7.33473 59.3988 7.16307 59.4615 6.96686C59.5242 6.77065 59.5239 6.55974 59.4607 6.36371C59.3975 6.16767 59.2745 5.99633 59.109 5.87372C58.9435 5.75111 58.7437 5.68337 58.5378 5.68001L54.5378 5.5289C54.5181 5.52754 54.4993 5.52053 54.4835 5.5087C54.4677 5.49687 54.4557 5.48073 54.4489 5.46223L53.0667 1.7289C52.9972 1.53896 52.8711 1.37495 52.7053 1.25908C52.5396 1.1432 52.3422 1.08105 52.14 1.08105C51.9378 1.08105 51.7404 1.1432 51.5747 1.25908C51.4089 1.37495 51.2828 1.53896 51.2133 1.7289L49.8356 5.47557C49.8288 5.49407 49.8167 5.5102 49.801 5.52203C49.7852 5.53386 49.7663 5.54088 49.7467 5.54223L45.7467 5.69334C45.5407 5.69671 45.341 5.76444 45.1755 5.88705C45.01 6.00966 44.887 6.181 44.8237 6.37704C44.7605 6.57308 44.7602 6.78399 44.8229 6.98019C44.8856 7.1764 45.0082 7.34807 45.1733 7.47112L48.3111 9.93779C48.3268 9.95015 48.3386 9.96684 48.3449 9.9858C48.3512 10.0048 48.3518 10.0251 48.3467 10.0445L47.2667 13.8711C47.2107 14.066 47.2161 14.2734 47.2822 14.465C47.3483 14.6567 47.4718 14.8234 47.6359 14.9424C47.8001 15.0613 47.9969 15.1269 48.1996 15.13C48.4024 15.1332 48.6011 15.0738 48.7689 14.96L52.0845 12.7378C52.1008 12.7265 52.1202 12.7205 52.14 12.7205C52.1599 12.7205 52.1792 12.7265 52.1956 12.7378L55.5111 14.96C55.6766 15.0777 55.8747 15.141 56.0778 15.141C56.2809 15.141 56.4789 15.0777 56.6445 14.96C56.8086 14.8421 56.9323 14.6763 56.9983 14.4853C57.0644 14.2943 57.0696 14.0875 57.0133 13.8933L55.9245 10.0533C55.9187 10.0341 55.919 10.0135 55.9254 9.99439C55.9317 9.9753 55.9438 9.95864 55.96 9.94668L59.1111 7.45779Z" fill="#F2994A"></path></g><g clip-path="url(#clip3_1_1651)"><path d="M79.1111 7.45779C79.2763 7.33473 79.3988 7.16307 79.4615 6.96686C79.5242 6.77065 79.5239 6.55974 79.4607 6.36371C79.3975 6.16767 79.2745 5.99633 79.109 5.87372C78.9435 5.75111 78.7437 5.68337 78.5378 5.68001L74.5378 5.5289C74.5181 5.52754 74.4993 5.52053 74.4835 5.5087C74.4677 5.49687 74.4557 5.48073 74.4489 5.46223L73.0667 1.7289C72.9972 1.53896 72.8711 1.37495 72.7053 1.25908C72.5396 1.1432 72.3422 1.08105 72.14 1.08105C71.9378 1.08105 71.7404 1.1432 71.5747 1.25908C71.4089 1.37495 71.2828 1.53896 71.2133 1.7289L69.8356 5.47557C69.8288 5.49407 69.8167 5.5102 69.801 5.52203C69.7852 5.53386 69.7663 5.54088 69.7467 5.54223L65.7467 5.69334C65.5407 5.69671 65.341 5.76444 65.1755 5.88705C65.01 6.00966 64.887 6.181 64.8237 6.37704C64.7605 6.57308 64.7602 6.78399 64.8229 6.98019C64.8856 7.1764 65.0082 7.34807 65.1733 7.47112L68.3111 9.93779C68.3268 9.95015 68.3386 9.96684 68.3449 9.9858C68.3512 10.0048 68.3518 10.0251 68.3467 10.0445L67.2667 13.8711C67.2107 14.066 67.2161 14.2734 67.2822 14.465C67.3483 14.6567 67.4718 14.8234 67.6359 14.9424C67.8001 15.0613 67.9969 15.1269 68.1996 15.13C68.4024 15.1332 68.6011 15.0738 68.7689 14.96L72.0845 12.7378C72.1008 12.7265 72.1202 12.7205 72.14 12.7205C72.1599 12.7205 72.1792 12.7265 72.1956 12.7378L75.5111 14.96C75.6766 15.0777 75.8747 15.141 76.0778 15.141C76.2809 15.141 76.4789 15.0777 76.6445 14.96C76.8086 14.8421 76.9323 14.6763 76.9983 14.4853C77.0644 14.2943 77.0696 14.0875 77.0133 13.8933L75.9245 10.0533C75.9187 10.0341 75.919 10.0135 75.9254 9.99439C75.9317 9.9753 75.9438 9.95864 75.96 9.94668L79.1111 7.45779Z" fill="#F2994A"></path></g><g clip-path="url(#clip4_1_1651)"><path d="M99.1111 7.45779C99.2763 7.33473 99.3988 7.16307 99.4615 6.96686C99.5242 6.77065 99.5239 6.55974 99.4607 6.36371C99.3975 6.16767 99.2745 5.99633 99.109 5.87372C98.9435 5.75111 98.7437 5.68337 98.5378 5.68001L94.5378 5.5289C94.5181 5.52754 94.4993 5.52053 94.4835 5.5087C94.4677 5.49687 94.4557 5.48073 94.4489 5.46223L93.0667 1.7289C92.9972 1.53896 92.8711 1.37495 92.7053 1.25908C92.5396 1.1432 92.3422 1.08105 92.14 1.08105C91.9378 1.08105 91.7404 1.1432 91.5747 1.25908C91.4089 1.37495 91.2828 1.53896 91.2133 1.7289L89.8356 5.47557C89.8288 5.49407 89.8167 5.5102 89.801 5.52203C89.7852 5.53386 89.7663 5.54088 89.7467 5.54223L85.7467 5.69334C85.5407 5.69671 85.341 5.76444 85.1755 5.88705C85.01 6.00966 84.887 6.181 84.8237 6.37704C84.7605 6.57308 84.7602 6.78399 84.8229 6.98019C84.8856 7.1764 85.0082 7.34807 85.1733 7.47112L88.3111 9.93779C88.3268 9.95015 88.3386 9.96684 88.3449 9.9858C88.3512 10.0048 88.3518 10.0251 88.3467 10.0445L87.2667 13.8711C87.2107 14.066 87.2161 14.2734 87.2822 14.465C87.3483 14.6567 87.4718 14.8234 87.6359 14.9424C87.8001 15.0613 87.9969 15.1269 88.1996 15.13C88.4024 15.1332 88.6011 15.0738 88.7689 14.96L92.0845 12.7378C92.1008 12.7265 92.1202 12.7205 92.14 12.7205C92.1599 12.7205 92.1792 12.7265 92.1956 12.7378L95.5111 14.96C95.6766 15.0777 95.8747 15.141 96.0778 15.141C96.2809 15.141 96.4789 15.0777 96.6445 14.96C96.8086 14.8421 96.9323 14.6763 96.9983 14.4853C97.0644 14.2943 97.0696 14.0875 97.0133 13.8933L95.9245 10.0533C95.9187 10.0341 95.919 10.0135 95.9254 9.99439C95.9317 9.9753 95.9438 9.95864 95.96 9.94668L99.1111 7.45779Z" fill="#F2994A"></path></g></g><defs><filter id="filter0_d_1_1651" x="0" y="0" width="104" height="24" filterUnits="userSpaceOnUse" color-interpolation-filters="sRGB"><feFlood flood-opacity="0" result="BackgroundImageFix"></feFlood><feColorMatrix in="SourceAlpha" type="matrix" values="0 0 0 0 0 0 0 0 0 0 0 0 0 0 0 0 0 0 127 0" result="hardAlpha"></feColorMatrix><feOffset dy="4"></feOffset><feGaussianBlur stdDeviation="2"></feGaussianBlur><feComposite in2="hardAlpha" operator="out"></feComposite><feColorMatrix type="matrix" values="0 0 0 0 0 0 0 0 0 0 0 0 0 0 0 0 0 0 0.25 0"></feColorMatrix><feBlend mode="normal" in2="BackgroundImageFix" result="effect1_dropShadow_1_1651"></feBlend><feBlend mode="normal" in="SourceGraphic" in2="effect1_dropShadow_1_1651" result="shape"></feBlend></filter><clipPath id="clip0_1_1651"><rect width="16" height="16" fill="white" transform="translate(4)"></rect></clipPath><clipPath id="clip1_1_1651"><rect width="16" height="16" fill="white" transform="translate(24)"></rect></clipPath><clipPath id="clip2_1_1651"><rect width="16" height="16" fill="white" transform="translate(44)"></rect></clipPath><clipPath id="clip3_1_1651"><rect width="16" height="16" fill="white" transform="translate(64)"></rect></clipPath><clipPath id="clip4_1_1651"><rect width="16" height="16" fill="white" transform="translate(84)"></rect></clipPath></defs></svg>